<svg width="37" height="37" viewBox="0 0 37 37" fill="none" xmlns="http://www.w3.org/2000/svg">
<path d="M18.3501 0.57502L18.3536 18.5573L25.2384 1.94518L18.3601 18.5601L31.078 5.8471L18.365 18.565L34.9799 11.6867L18.3678 18.5715L36.3501 18.575L18.3678 18.5785L34.9799 25.4634L18.365 18.585L31.078 31.3029L18.3601 18.59L25.2384 35.2048L18.3536 18.5927L18.3501 36.575L18.3466 18.5927L11.4618 35.2048L18.3401 18.59L5.62218 31.3029L18.3351 18.585L1.72026 25.4634L18.3324 18.5785L0.350098 18.575L18.3324 18.5715L1.72026 11.6867L18.3351 18.565L5.62218 5.8471L18.3401 18.5601L11.4618 1.94518L18.3466 18.5573L18.3501 0.57502Z" fill="#C8FEC7" stroke="#C8FEC7" stroke-width="1.8"/>
</svg>
