<svg width="25" height="24" viewBox="0 0 25 24" fill="none" xmlns="http://www.w3.org/2000/svg">
<g clip-path="url(#clip0_210_3654)">
<path d="M9.41992 20.95C11.0759 20.95 12.4199 19.606 12.4199 17.95V14.95H9.41992C7.76392 14.95 6.41992 16.294 6.41992 17.95C6.41992 19.606 7.76392 20.95 9.41992 20.95Z" fill="white"/>
<path d="M6.41992 11.95C6.41992 10.294 7.76392 8.94998 9.41992 8.94998H12.4199V14.95H9.41992C7.76392 14.95 6.41992 13.606 6.41992 11.95Z" fill="white"/>
<path d="M6.41992 5.94998C6.41992 4.29398 7.76392 2.94998 9.41992 2.94998H12.4199V8.94998H9.41992C7.76392 8.94998 6.41992 7.60598 6.41992 5.94998Z" fill="white"/>
<path d="M12.4199 2.94998H15.4199C17.0759 2.94998 18.4199 4.29398 18.4199 5.94998C18.4199 7.60598 17.0759 8.94998 15.4199 8.94998H12.4199V2.94998Z" fill="white"/>
<path d="M18.4199 11.95C18.4199 13.606 17.0759 14.95 15.4199 14.95C13.7639 14.95 12.4199 13.606 12.4199 11.95C12.4199 10.294 13.7639 8.94998 15.4199 8.94998C17.0759 8.94998 18.4199 10.294 18.4199 11.95Z" fill="white"/>
</g>
<rect x="0.945093" y="0.474969" width="22.95" height="22.95" rx="4.275" stroke="white" stroke-width="0.45"/>
<defs>
<clipPath id="clip0_210_3654">
<rect width="18" height="18" fill="white" transform="translate(3.42004 2.94998)"/>
</clipPath>
</defs>
</svg>
