<svg width="99" height="100" viewBox="0 0 99 100" fill="none" xmlns="http://www.w3.org/2000/svg">
<path d="M99 49.9C99 77.2381 76.8381 99.4 49.5 99.4C22.1619 99.4 0 77.2381 0 49.9C0 22.5619 22.1619 0.400024 49.5 0.400024C76.8381 0.400024 99 22.5619 99 49.9ZM14.85 49.9C14.85 69.0367 30.3633 84.55 49.5 84.55C68.6367 84.55 84.15 69.0367 84.15 49.9C84.15 30.7634 68.6367 15.25 49.5 15.25C30.3633 15.25 14.85 30.7634 14.85 49.9Z" fill="#0B0B0B"/>
<path d="M19.7485 79.6515C16.8488 82.5512 12.0941 82.5784 9.66032 79.278C3.65708 71.1371 0.254842 61.297 0.0137398 51.0662C-0.286048 38.3452 4.32449 25.9974 12.8883 16.5859C21.452 7.17445 33.3112 1.42233 46.004 0.523636C58.6967 -0.37506 71.2481 3.64869 81.0525 11.7596C90.8569 19.8705 97.1613 31.4456 98.6569 44.0819C100.153 56.7182 96.7245 69.4452 89.0844 79.6208C81.4443 89.7964 70.1791 96.6391 57.6273 98.7283C47.5325 100.409 37.2292 98.9104 28.1076 94.5389C24.4096 92.7667 23.5454 88.0911 25.8504 84.6995V84.6995C28.1553 81.3078 32.7593 80.5138 36.5636 82.0447C42.424 84.403 48.865 85.1324 55.1891 84.0798C63.9754 82.6174 71.861 77.8275 77.2091 70.7046C82.5571 63.5817 84.9568 54.6728 83.9098 45.8273C82.8629 36.9819 78.4498 28.8794 71.5867 23.2017C64.7236 17.5241 55.9377 14.7075 47.0528 15.3366C38.1678 15.9656 29.8664 19.9921 23.8718 26.5801C17.8771 33.1682 14.6498 41.8117 14.8596 50.7164C15.0107 57.1257 16.9341 63.316 20.3488 68.6306C22.5654 72.0806 22.6481 76.7519 19.7485 79.6515V79.6515Z" fill="url(#paint0_linear_246_3539)"/>
<path d="M37.2114 56.0268C40.6134 56.0268 42.4602 53.4996 42.4602 49.7898V49.7574C42.4602 47.6676 41.9256 46.3716 41.0994 45.5616C40.2408 44.703 39.2688 44.2332 37.6164 44.2332C35.0244 44.2332 33.0966 45.8532 33.0966 48.3642V48.3966C33.0966 50.616 34.7004 51.9768 36.9036 51.9768C37.908 51.9768 38.718 51.6042 39.3012 51.0534C39.1554 52.5114 38.4588 53.4186 37.1628 53.4186C36.2556 53.4186 35.5104 53.127 34.7328 52.5114L33.2586 54.6822C34.2954 55.4922 35.5266 56.0268 37.2114 56.0268ZM37.7622 49.725C36.774 49.725 36.1422 49.0932 36.1422 48.2346V48.2022C36.1422 47.3274 36.7416 46.6794 37.7298 46.6794C38.718 46.6794 39.3498 47.3436 39.3498 48.2184V48.2508C39.3498 49.077 38.7504 49.725 37.7622 49.725ZM43.0833 55.8H46.5501L51.5559 46.8252V44.46H42.8241V47.1006H48.0729L43.0833 55.8ZM54.7029 50.4054C56.4525 50.4054 57.6351 49.0284 57.6351 47.3598V47.3274C57.6351 45.675 56.4849 44.298 54.7191 44.298C52.9371 44.298 51.7869 45.675 51.7869 47.3436V47.376C51.7869 49.0446 52.9533 50.4054 54.7029 50.4054ZM53.0343 55.8H55.2213L63.9693 44.46H61.7823L53.0343 55.8ZM62.2845 55.962C64.0341 55.962 65.2167 54.5688 65.2167 52.9164V52.884C65.2167 51.2154 64.0665 49.8546 62.3007 49.8546C60.5187 49.8546 59.3685 51.2316 59.3685 52.9002V52.9326C59.3685 54.585 60.5349 55.962 62.2845 55.962ZM54.7191 48.6234C54.1845 48.6234 53.7633 48.0888 53.7633 47.3598V47.3274C53.7633 46.6146 54.1359 46.08 54.7029 46.08C55.2537 46.08 55.6587 46.6308 55.6587 47.3436V47.376C55.6587 48.0888 55.2699 48.6234 54.7191 48.6234ZM62.3007 54.18C61.7661 54.18 61.3449 53.6292 61.3449 52.9164V52.884C61.3449 52.155 61.7013 51.6366 62.2845 51.6366C62.8353 51.6366 63.2403 52.1712 63.2403 52.9002V52.9326C63.2403 53.6454 62.8515 54.18 62.3007 54.18Z" fill="white"/>
<defs>
<linearGradient id="paint0_linear_246_3539" x1="0" y1="49.9" x2="99" y2="49.9" gradientUnits="userSpaceOnUse">
<stop stop-color="#FA709A"/>
<stop offset="1" stop-color="#FEE140"/>
</linearGradient>
</defs>
</svg>
