<svg width="24" height="24" viewBox="0 0 24 24" fill="none" xmlns="http://www.w3.org/2000/svg">
<g clip-path="url(#clip0_210_3650)">
<path d="M16.2633 6.36081C14.8953 6.40275 14.8957 8.37087 16.2633 8.41245C17.6313 8.37051 17.631 6.40239 16.2633 6.36081ZM11.7 7.54845C9.27536 7.54845 7.30994 9.51909 7.30994 11.95C7.54124 17.7886 15.8594 17.787 16.0898 11.95C16.09 9.51909 14.1244 7.54845 11.7 7.54845ZM11.7 14.8071C10.1262 14.8071 8.85038 13.5279 8.85038 11.95C9.0005 8.16009 14.4001 8.16099 14.5497 11.95C14.5495 13.528 13.2737 14.8071 11.7 14.8071Z" fill="white"/>
<path d="M20.1974 8.42523C20.1341 5.42517 18.2254 3.51537 15.2246 3.45255C14.504 3.38307 8.89631 3.38181 8.17523 3.45255C5.17517 3.51591 3.26537 5.42463 3.20255 8.42541C3.13307 9.14487 3.13163 14.7544 3.20255 15.4747C3.25853 18.4651 5.18453 20.3916 8.17523 20.4474C8.89577 20.5176 14.5035 20.5176 15.2246 20.4474C16.1345 20.4058 16.756 20.2613 17.2998 20.05C19.2055 19.2888 20.1366 17.5955 20.1974 15.4746C20.2669 14.754 20.2682 9.14631 20.1974 8.42523ZM15.1544 18.9086C14.4454 18.9763 8.95499 18.9774 8.24543 18.9086C7.41203 18.8706 6.95933 18.7313 6.65801 18.6143C4.05719 17.4079 4.86359 14.9684 4.74101 11.6199C4.74371 10.8421 4.73939 9.27339 4.74119 8.49561C4.84505 6.17685 5.93711 5.10333 8.24543 4.99137C8.95535 4.92369 14.4443 4.92261 15.1544 4.99137C17.4739 5.09523 18.5463 6.18729 18.6586 8.49543C18.7045 9.04965 18.7378 12.0751 18.6586 13.6062C18.7441 16.4818 18.6131 18.7399 15.1544 18.9086Z" fill="white"/>
</g>
<rect x="0.225" y="0.474969" width="22.95" height="22.95" rx="4.275" stroke="white" stroke-width="0.45"/>
<defs>
<clipPath id="clip0_210_3650">
<rect width="18" height="18" fill="white" transform="translate(2.69995 2.94998)"/>
</clipPath>
</defs>
</svg>
