<svg width="24" height="24" viewBox="0 0 24 24" fill="none" xmlns="http://www.w3.org/2000/svg">
<g clip-path="url(#clip0_210_3661)">
<path d="M19.4263 3.40231C16.7963 3.39493 7.09595 3.40735 4.85387 3.40231C4.15619 3.40231 3.59009 3.95113 3.59009 4.62703V19.2756C3.59009 19.9517 4.15619 20.5 4.85387 20.5H19.4263C20.1243 20.5 20.6901 19.9517 20.6901 19.2754V4.62703C20.6901 3.95113 20.1243 3.40231 19.4263 3.40231Z" fill="white"/>
<path d="M12.7616 17.7109C12.7616 17.7109 12.7616 13.4129 12.7616 13.4127C12.7365 12.6228 13.2087 11.8857 14.1587 11.8526C15.0845 11.8526 15.4549 12.5584 15.4549 13.5932V17.7107H18.0134V13.2973C18.0134 10.933 16.7513 9.83283 15.0677 9.83283C13.6875 9.83283 13.0813 10.6041 12.7445 11.1296L12.7616 10.0136H10.203C10.2363 10.7357 10.2029 17.7109 10.2029 17.7109H12.7616ZM8.78663 14.373V10.0134H6.22775V17.7107H8.78681C8.78627 16.9025 8.78771 15.1698 8.78663 14.373ZM7.50773 8.96271C8.39981 8.96271 8.95529 8.37159 8.95529 7.63305C8.94791 5.85159 6.07457 5.87139 6.07691 7.63287C6.07493 8.37717 6.64571 8.97189 7.50773 8.96271Z" fill="black"/>
</g>
<rect x="0.664941" y="0.474969" width="22.95" height="22.95" rx="4.275" stroke="white" stroke-width="0.45"/>
<defs>
<clipPath id="clip0_210_3661">
<rect width="18" height="18" fill="white" transform="translate(3.13989 2.94998)"/>
</clipPath>
</defs>
</svg>
