<svg width="34" height="13" viewBox="0 0 34 13" fill="none" xmlns="http://www.w3.org/2000/svg">
<path d="M9.62763 5.40091C9.45875 5.57082 9.32944 5.77589 9.24887 6.00145C9.16831 6.22706 9.1385 6.46764 9.16153 6.70608L9.15351 6.69806C9.17722 6.97874 9.13934 7.26117 9.0426 7.52572C8.94586 7.79023 8.79258 8.03045 8.59344 8.22964C8.39425 8.42878 8.15403 8.58211 7.88947 8.6788C7.62496 8.77554 7.3425 8.81342 7.06186 8.78971L7.06988 8.79773C6.73416 8.7665 6.39698 8.83953 6.10426 9.00694C5.81159 9.17436 5.57765 9.42795 5.43439 9.73319C5.29113 10.0384 5.24545 10.3804 5.30365 10.7125C5.36189 11.0446 5.5211 11.3507 5.75963 11.589C5.99816 11.8273 6.30438 11.9863 6.63653 12.0442C6.96873 12.1021 7.31064 12.0561 7.61574 11.9126C7.92084 11.769 8.17421 11.5349 8.34136 11.242C8.5085 10.9492 8.58127 10.612 8.54972 10.2762L8.55819 10.2843C8.53448 10.0036 8.57231 9.72115 8.66905 9.4566C8.76579 9.19209 8.91913 8.95187 9.11827 8.75268C9.31745 8.55354 9.55767 8.40021 9.82218 8.30352C10.0867 8.20678 10.3692 8.1689 10.6498 8.19261L10.6414 8.18459C10.9156 8.20923 11.1917 8.16427 11.4439 8.05385C11.6961 7.94343 11.9164 7.77111 12.0843 7.5529C12.2522 7.33469 12.3624 7.07758 12.4044 6.80549C12.4466 6.53336 12.4193 6.25504 12.3252 5.99623C12.2311 5.73747 12.0731 5.50665 11.8661 5.32516C11.659 5.14367 11.4095 5.01738 11.1406 4.95803C10.8717 4.89867 10.5922 4.90812 10.3279 4.98552C10.0637 5.06297 9.8233 5.20583 9.62897 5.40091H9.62763Z" fill="#171717"/>
<path d="M6.34052 7.747L6.33205 7.73898C6.57058 7.763 6.81148 7.73372 7.03735 7.65325C7.26318 7.57277 7.46834 7.44314 7.63793 7.27368C7.80749 7.10422 7.93733 6.89915 8.01794 6.67337C8.0986 6.44758 8.12805 6.20673 8.10421 5.96816L8.11268 5.97618C8.08897 5.69549 8.12685 5.41307 8.22354 5.14852C8.32028 4.88401 8.47362 4.64378 8.67276 4.4446C8.87194 4.24546 9.11216 4.09213 9.37667 3.99543C9.64123 3.89868 9.92365 3.86083 10.2043 3.88452L10.1959 3.8765C10.5316 3.90805 10.8689 3.83522 11.1618 3.66801C11.4546 3.50079 11.6888 3.2473 11.8323 2.94212C11.9757 2.63695 12.0216 2.29493 11.9636 1.96273C11.9056 1.63053 11.7465 1.32432 11.508 1.08586C11.2695 0.847409 10.9633 0.688311 10.6311 0.630284C10.2989 0.572254 9.95694 0.618111 9.65174 0.761603C9.34655 0.905092 9.09309 1.13923 8.92586 1.43209C8.75862 1.72494 8.68581 2.06224 8.71736 2.398L8.70934 2.38953C8.73309 2.67021 8.6953 2.95269 8.59861 3.21726C8.50191 3.48182 8.34858 3.72208 8.14944 3.92129C7.95026 4.12043 7.70999 4.27376 7.44543 4.37045C7.18084 4.46715 6.89837 4.50494 6.61768 4.48118L6.6257 4.48965C6.38717 4.46563 6.14624 4.49491 5.92041 4.57539C5.69458 4.65582 5.48942 4.78549 5.31982 4.95495C5.15023 5.12441 5.02042 5.32948 4.93977 5.55526C4.85916 5.78105 4.82971 6.0219 4.85355 6.26047L4.84553 6.25245C4.86914 6.53309 4.83122 6.81551 4.73448 7.08002C4.6377 7.34449 4.48441 7.58471 4.28527 7.78385C4.08611 7.98299 3.84592 8.13628 3.58142 8.23306C3.31693 8.3298 3.03451 8.36772 2.75387 8.34411L2.76189 8.35213C2.42614 8.32058 2.08883 8.39339 1.79598 8.56063C1.50313 8.72786 1.26899 8.98132 1.1255 9.28651C0.982006 9.5917 0.936145 9.9337 0.994175 10.2659C1.05221 10.5981 1.2113 10.9043 1.44976 11.1428C1.68822 11.3812 1.99443 11.5403 2.32663 11.5983C2.65883 11.6564 3.00084 11.6105 3.30602 11.467C3.61119 11.3235 3.86468 11.0894 4.0319 10.7966C4.19914 10.5037 4.27195 10.1664 4.2404 9.83064L4.24886 9.83866C4.22516 9.55797 4.26303 9.27555 4.35977 9.011C4.45647 8.74649 4.6098 8.50626 4.80894 8.30708C5.00813 8.10794 5.24835 7.95461 5.51286 7.85791C5.77741 7.76117 6.05983 7.72329 6.34052 7.747Z" fill="#171717"/>
<path d="M3.35418 6.85273C3.52307 6.68287 3.65238 6.4778 3.73287 6.25219C3.81337 6.02659 3.84306 5.78596 3.81984 5.54756L3.8283 5.55559C3.80459 5.27486 3.84245 4.9923 3.93924 4.7277C4.03603 4.4631 4.18942 4.22283 4.38869 4.02365C4.58796 3.82448 4.82828 3.67119 5.09292 3.57452C5.35756 3.47784 5.64012 3.4401 5.92085 3.46393L5.91238 3.45591C6.24801 3.48736 6.5852 3.4145 6.87791 3.2473C7.17063 3.08009 7.40461 2.82667 7.54805 2.52159C7.69145 2.2165 7.73726 1.87461 7.67924 1.54254C7.62122 1.21046 7.46214 0.904366 7.22379 0.665996C6.98544 0.427626 6.67931 0.268582 6.34724 0.210555C6.01518 0.152525 5.67327 0.198342 5.36821 0.341745C5.06311 0.485149 4.8097 0.719165 4.64251 1.01188C4.47527 1.3046 4.40242 1.64177 4.43387 1.9774L4.42585 1.96938C4.44956 2.25004 4.41168 2.5325 4.31494 2.79702C4.2182 3.06155 4.06493 3.30178 3.86576 3.50095C3.6666 3.70011 3.42636 3.85341 3.16184 3.95013C2.89731 4.04687 2.61486 4.08474 2.3342 4.06104L2.34222 4.06906C2.06798 4.04446 1.79197 4.08951 1.53977 4.19998C1.28757 4.31044 1.06733 4.4828 0.899468 4.70105C0.731605 4.91927 0.62155 5.17638 0.579494 5.44846C0.537443 5.72059 0.564754 5.99891 0.658896 6.25763C0.753038 6.51639 0.910973 6.74717 1.11806 6.92862C1.32514 7.11011 1.57468 7.23635 1.84355 7.29571C2.11241 7.35501 2.3919 7.34552 2.65613 7.26812C2.92036 7.19068 3.16076 7.04782 3.35507 6.85273H3.35418Z" fill="#171717"/>
<path d="M17.976 8.33507V9.62732H17.2007C16.6482 9.62732 16.2174 9.49364 15.9085 9.22628C15.5995 8.95298 15.445 8.51034 15.445 7.89838V5.91991H14.839V4.6544H15.445V3.44237H16.969V4.6544H17.9671V5.91991H16.969V7.91621C16.969 8.06474 17.0046 8.17169 17.0759 8.23704C17.1472 8.3024 17.2661 8.33507 17.4324 8.33507H17.976ZM19.5914 4.1375C19.324 4.1375 19.1042 4.06027 18.9319 3.90579C18.7655 3.74537 18.6823 3.54931 18.6823 3.3176C18.6823 3.07994 18.7655 2.88388 18.9319 2.7294C19.1042 2.56899 19.324 2.48878 19.5914 2.48878C19.8528 2.48878 20.0667 2.56899 20.233 2.7294C20.4053 2.88388 20.4915 3.07994 20.4915 3.3176C20.4915 3.54931 20.4053 3.74537 20.233 3.90579C20.0667 4.06027 19.8528 4.1375 19.5914 4.1375ZM20.3489 4.6544V9.62732H18.8249V4.6544H20.3489ZM21.1503 7.13195C21.1503 6.62099 21.2453 6.17242 21.4354 5.78623C21.6315 5.40004 21.8959 5.10298 22.2286 4.89503C22.5613 4.68708 22.9327 4.58311 23.3426 4.58311C23.6932 4.58311 23.9991 4.6544 24.2606 4.79699C24.5279 4.93959 24.7329 5.12674 24.8755 5.35845V4.6544H26.3995V9.62732H24.8755V8.92327C24.727 9.15498 24.519 9.34213 24.2517 9.48473C23.9902 9.62732 23.6843 9.69862 23.3337 9.69862C22.9297 9.69862 22.5613 9.59464 22.2286 9.38669C21.8959 9.17281 21.6315 8.87277 21.4354 8.48658C21.2453 8.09445 21.1503 7.64291 21.1503 7.13195ZM24.8755 7.14086C24.8755 6.76061 24.7685 6.46058 24.5547 6.24075C24.3467 6.02091 24.0912 5.911 23.7882 5.911C23.4852 5.911 23.2268 6.02091 23.0129 6.24075C22.8049 6.45463 22.701 6.7517 22.701 7.13195C22.701 7.5122 22.8049 7.81521 23.0129 8.04098C23.2268 8.26081 23.4852 8.37072 23.7882 8.37072C24.0912 8.37072 24.3467 8.26081 24.5547 8.04098C24.7685 7.82115 24.8755 7.52111 24.8755 7.14086ZM30.5321 4.60093C31.1143 4.60093 31.5777 4.79105 31.9223 5.1713C32.2729 5.54561 32.4481 6.0625 32.4481 6.722V9.62732H30.9331V6.92697C30.9331 6.59426 30.847 6.33581 30.6747 6.15162C30.5024 5.96744 30.2706 5.87535 29.9795 5.87535C29.6884 5.87535 29.4567 5.96744 29.2844 6.15162C29.1121 6.33581 29.0259 6.59426 29.0259 6.92697V9.62732H27.502V4.6544H29.0259V5.31389C29.1804 5.09406 29.3883 4.92176 29.6498 4.79699C29.9112 4.66629 30.2053 4.60093 30.5321 4.60093Z" fill="#171717"/>
</svg>
