<svg width="33" height="13" viewBox="0 0 33 13" fill="none" xmlns="http://www.w3.org/2000/svg">
<path d="M9.15701 5.66647C8.98646 5.83805 8.85587 6.04514 8.77451 6.27293C8.69315 6.50077 8.66304 6.74372 8.6863 6.98451L8.6782 6.97642C8.70214 7.25987 8.6639 7.54508 8.5662 7.81225C8.46851 8.07937 8.31371 8.32196 8.1126 8.52311C7.91145 8.72422 7.66885 8.87906 7.40169 8.97671C7.13457 9.07441 6.84931 9.11266 6.5659 9.08872L6.57401 9.09682C6.23498 9.06527 5.89446 9.13902 5.59885 9.30809C5.30329 9.47715 5.06705 9.73325 4.92237 10.0415C4.7777 10.3498 4.73157 10.6951 4.79034 11.0305C4.84915 11.3659 5.00994 11.675 5.25082 11.9157C5.49171 12.1563 5.80095 12.3168 6.13638 12.3753C6.47185 12.4338 6.81714 12.3874 7.12525 12.2424C7.43337 12.0974 7.68924 11.861 7.85804 11.5652C8.02683 11.2695 8.10032 10.9289 8.06846 10.5899L8.077 10.598C8.05306 10.3146 8.09127 10.0294 8.18896 9.76219C8.28666 9.49507 8.44151 9.25247 8.64261 9.05132C8.84376 8.85022 9.08636 8.69537 9.35348 8.59772C9.62064 8.50002 9.90585 8.46178 10.1893 8.48572L10.1808 8.47762C10.4577 8.5025 10.7365 8.4571 10.9912 8.34559C11.2459 8.23408 11.4684 8.06006 11.6379 7.83969C11.8075 7.61933 11.9187 7.35968 11.9612 7.08491C12.0038 6.8101 11.9762 6.52903 11.8812 6.26767C11.7861 6.00635 11.6267 5.77325 11.4175 5.58997C11.2084 5.40668 10.9564 5.27915 10.6849 5.21921C10.4134 5.15927 10.1311 5.16881 9.86423 5.24698C9.59738 5.32519 9.3546 5.46946 9.15836 5.66647H9.15701Z" fill="white"/>
<path d="M5.83738 8.03575L5.82883 8.02765C6.06971 8.0519 6.31298 8.02234 6.54109 7.94107C6.76915 7.8598 6.97633 7.72889 7.1476 7.55776C7.31882 7.38662 7.44995 7.17953 7.53136 6.95152C7.61281 6.7235 7.64255 6.48028 7.61848 6.23935L7.62703 6.24745C7.60309 5.96399 7.64134 5.67878 7.73899 5.41162C7.83668 5.1445 7.99153 4.9019 8.19263 4.70075C8.39378 4.49965 8.63638 4.3448 8.9035 4.24715C9.17066 4.14944 9.45587 4.11122 9.73933 4.13515L9.73078 4.12705C10.0699 4.15891 10.4105 4.08536 10.7062 3.91649C11.002 3.74762 11.2384 3.49163 11.3833 3.18344C11.5282 2.87525 11.5745 2.52987 11.5159 2.19439C11.4573 1.85891 11.2967 1.54968 11.0558 1.30886C10.8151 1.06805 10.5058 0.907387 10.1703 0.848788C9.83486 0.790184 9.48949 0.836494 9.18128 0.981403C8.87308 1.12631 8.61712 1.36276 8.44823 1.6585C8.27935 1.95424 8.20582 2.29488 8.23768 2.63395L8.22958 2.6254C8.25356 2.90885 8.2154 3.19412 8.11775 3.46129C8.0201 3.72847 7.86526 3.9711 7.66415 4.17227C7.463 4.37338 7.22036 4.52822 6.9532 4.62587C6.68599 4.72352 6.40073 4.76168 6.11728 4.7377L6.12538 4.74625C5.88449 4.72199 5.64118 4.75156 5.41312 4.83283C5.18506 4.91405 4.97788 5.045 4.80661 5.21614C4.63534 5.38727 4.50425 5.59436 4.4228 5.82238C4.3414 6.05039 4.31165 6.29362 4.33573 6.53455L4.32763 6.52645C4.35148 6.80986 4.31318 7.09507 4.21549 7.36219C4.11775 7.62926 3.96295 7.87186 3.76184 8.07296C3.56072 8.27407 3.31815 8.42887 3.05105 8.52661C2.78395 8.6243 2.49874 8.6626 2.21533 8.63875L2.22343 8.64685C1.88436 8.61499 1.54373 8.68852 1.24798 8.8574C0.952241 9.02629 0.715788 9.28225 0.570884 9.59045C0.425975 9.89866 0.379661 10.244 0.438264 10.5795C0.496868 10.915 0.657536 11.2242 0.898344 11.465C1.13916 11.7059 1.44839 11.8665 1.78387 11.9251C2.11935 11.9837 2.46474 11.9374 2.77293 11.7925C3.08111 11.6476 3.33711 11.4112 3.50597 11.1154C3.67486 10.8196 3.74839 10.479 3.71653 10.1399L3.72508 10.148C3.70114 9.86459 3.73939 9.57938 3.83708 9.31222C3.93473 9.0451 4.08958 8.8025 4.29068 8.60135C4.49183 8.40025 4.73443 8.2454 5.00155 8.14775C5.26871 8.05006 5.55392 8.01181 5.83738 8.03575Z" fill="white"/>
<path d="M2.82145 7.13258C2.99201 6.96104 3.12259 6.75395 3.20388 6.52612C3.28517 6.29828 3.31516 6.05528 3.2917 5.81453L3.30025 5.82263C3.27631 5.53913 3.31454 5.25379 3.41229 4.98658C3.51003 4.71937 3.66493 4.47673 3.86617 4.27558C4.06741 4.07444 4.3101 3.91964 4.57735 3.82201C4.84461 3.72438 5.12996 3.68627 5.41346 3.71033L5.40491 3.70223C5.74385 3.73399 6.08436 3.66042 6.37997 3.49156C6.67557 3.32271 6.91186 3.06678 7.05672 2.75869C7.20153 2.45059 7.24779 2.10533 7.1892 1.76997C7.13061 1.43462 6.96996 1.12551 6.72925 0.884783C6.48855 0.64406 6.1794 0.483446 5.84406 0.424847C5.50872 0.366244 5.16344 0.412513 4.85536 0.557332C4.54725 0.702151 4.29133 0.938477 4.12249 1.23408C3.95361 1.52969 3.88003 1.87018 3.9118 2.20913L3.9037 2.20103C3.92764 2.48447 3.88939 2.76971 3.7917 3.03685C3.694 3.30398 3.53921 3.54658 3.33808 3.74771C3.13695 3.94885 2.89435 4.10366 2.62721 4.20133C2.36007 4.29902 2.07484 4.33727 1.7914 4.31333L1.7995 4.32143C1.52256 4.29659 1.24383 4.34209 0.989136 4.45364C0.734445 4.5652 0.512032 4.73926 0.342513 4.95967C0.172993 5.18003 0.061852 5.43968 0.019381 5.71445C-0.0230855 5.98927 0.00449501 6.27034 0.0995665 6.53161C0.194638 6.79292 0.354132 7.02598 0.56326 7.20922C0.772389 7.3925 1.02439 7.51999 1.29591 7.57993C1.56743 7.63982 1.84968 7.63024 2.11652 7.55207C2.38335 7.47386 2.62612 7.32959 2.82235 7.13258H2.82145Z" fill="white"/>
<path d="M17.5877 8.59502V9.90002H16.8047C16.2467 9.90002 15.8117 9.76502 15.4997 9.49502C15.1877 9.21902 15.0317 8.77202 15.0317 8.15402V6.15602H14.4197V4.87802H15.0317V3.65402H16.5707V4.87802H17.5787V6.15602H16.5707V8.17202C16.5707 8.32202 16.6067 8.43002 16.6787 8.49602C16.7507 8.56202 16.8707 8.59502 17.0387 8.59502H17.5877ZM19.219 4.35602C18.949 4.35602 18.727 4.27802 18.553 4.12202C18.385 3.96002 18.301 3.76202 18.301 3.52802C18.301 3.28802 18.385 3.09002 18.553 2.93402C18.727 2.77202 18.949 2.69102 19.219 2.69102C19.483 2.69102 19.699 2.77202 19.867 2.93402C20.041 3.09002 20.128 3.28802 20.128 3.52802C20.128 3.76202 20.041 3.96002 19.867 4.12202C19.699 4.27802 19.483 4.35602 19.219 4.35602ZM19.984 4.87802V9.90002H18.445V4.87802H19.984ZM20.7933 7.38002C20.7933 6.86402 20.8893 6.41102 21.0813 6.02102C21.2793 5.63102 21.5463 5.33102 21.8823 5.12102C22.2183 4.91102 22.5933 4.80602 23.0073 4.80602C23.3613 4.80602 23.6703 4.87802 23.9343 5.02202C24.2043 5.16602 24.4113 5.35502 24.5553 5.58902V4.87802H26.0943V9.90002H24.5553V9.18902C24.4053 9.42302 24.1953 9.61202 23.9253 9.75602C23.6613 9.90002 23.3523 9.97202 22.9983 9.97202C22.5903 9.97202 22.2183 9.86702 21.8823 9.65702C21.5463 9.44102 21.2793 9.13802 21.0813 8.74802C20.8893 8.35202 20.7933 7.89602 20.7933 7.38002ZM24.5553 7.38902C24.5553 7.00502 24.4473 6.70202 24.2313 6.48002C24.0213 6.25802 23.7633 6.14702 23.4573 6.14702C23.1513 6.14702 22.8903 6.25802 22.6743 6.48002C22.4643 6.69602 22.3593 6.99602 22.3593 7.38002C22.3593 7.76402 22.4643 8.07002 22.6743 8.29802C22.8903 8.52002 23.1513 8.63102 23.4573 8.63102C23.7633 8.63102 24.0213 8.52002 24.2313 8.29802C24.4473 8.07602 24.5553 7.77302 24.5553 7.38902ZM30.2677 4.82402C30.8557 4.82402 31.3237 5.01602 31.6717 5.40002C32.0257 5.77802 32.2027 6.30002 32.2027 6.96602V9.90002H30.6727V7.17302C30.6727 6.83702 30.5857 6.57602 30.4117 6.39002C30.2377 6.20402 30.0037 6.11102 29.7097 6.11102C29.4157 6.11102 29.1817 6.20402 29.0077 6.39002C28.8337 6.57602 28.7467 6.83702 28.7467 7.17302V9.90002H27.2077V4.87802H28.7467V5.54402C28.9027 5.32202 29.1127 5.14802 29.3767 5.02202C29.6407 4.89002 29.9377 4.82402 30.2677 4.82402Z" fill="white"/>
</svg>
