<svg width="24" height="24" viewBox="0 0 24 24" fill="none" xmlns="http://www.w3.org/2000/svg">
<g clip-path="url(#clip0_210_3671)">
<path d="M12.8625 11.95C12.8625 14.5864 10.8439 16.7312 8.36255 16.7312C5.88122 16.7312 3.86255 14.5864 3.86255 11.95C3.86255 9.3136 5.88122 7.16873 8.36255 7.16873C10.8439 7.16873 12.8625 9.31361 12.8625 11.95ZM16.2375 7.44998C15.838 7.44998 15.0845 7.6441 14.5273 8.94419C14.1792 9.75629 13.9875 10.8238 13.9875 11.95C13.9875 13.0761 14.1792 14.1437 14.5273 14.9558C15.0845 16.2559 15.838 16.45 16.2375 16.45C16.6371 16.45 17.3906 16.2559 17.9478 14.9558C18.2959 14.1437 18.4875 13.0762 18.4875 11.95C18.4875 10.8238 18.2959 9.75629 17.9478 8.94419C17.3906 7.6441 16.6371 7.44998 16.2375 7.44998ZM20.175 7.44998C20.0259 7.44999 19.8828 7.50925 19.7773 7.61474C19.6718 7.72023 19.6126 7.8633 19.6125 8.01248V15.8875C19.6125 16.0367 19.6718 16.1797 19.7773 16.2852C19.8828 16.3907 20.0259 16.45 20.175 16.45C20.3242 16.45 20.4673 16.3907 20.5728 16.2852C20.6783 16.1797 20.7375 16.0367 20.7375 15.8875V8.01248C20.7375 7.8633 20.6783 7.72023 20.5728 7.61474C20.4673 7.50925 20.3242 7.44999 20.175 7.44998V7.44998Z" fill="white"/>
</g>
<rect x="0.825098" y="0.474969" width="22.95" height="22.95" rx="4.275" stroke="white" stroke-width="0.45"/>
<defs>
<clipPath id="clip0_210_3671">
<rect width="18" height="18" fill="white" transform="translate(3.30005 2.94998)"/>
</clipPath>
</defs>
</svg>
