<svg width="25" height="24" viewBox="0 0 25 24" fill="none" xmlns="http://www.w3.org/2000/svg">
<path d="M12.5757 4.44998C11.0923 4.44998 9.64228 4.88985 8.40891 5.71396C7.17554 6.53807 6.21425 7.70941 5.64659 9.07986C5.07893 10.4503 4.93041 11.9583 5.2198 13.4132C5.50919 14.868 6.22349 16.2044 7.27239 17.2533C8.32128 18.3022 9.65765 19.0165 11.1125 19.3059C12.5674 19.5953 14.0754 19.4467 15.4458 18.8791C16.8163 18.3114 17.9876 17.3501 18.8117 16.1168C19.6358 14.8834 20.0757 13.4333 20.0757 11.95C20.0758 10.965 19.8818 9.98974 19.505 9.07976C19.1281 8.16978 18.5756 7.34295 17.8792 6.6465C17.1827 5.95004 16.3559 5.3976 15.4459 5.02072C14.5359 4.64384 13.5606 4.4499 12.5757 4.44998V4.44998ZM14.9603 15.8143C14.9322 15.8843 14.8895 15.9475 14.835 15.9997C14.7806 16.0518 14.7156 16.0917 14.6444 16.1167C14.5732 16.1416 14.4975 16.1511 14.4224 16.1444C14.3473 16.1377 14.2745 16.1151 14.2088 16.078L12.1728 14.4959L10.8661 15.7015C10.8358 15.7239 10.8003 15.7383 10.7629 15.7434C10.7256 15.7485 10.6875 15.7441 10.6523 15.7307L10.9028 13.4893L10.9108 13.4957L10.916 13.4515C10.916 13.4515 14.5797 10.1158 14.729 9.9737C14.8801 9.83195 14.8302 9.8012 14.8302 9.8012C14.8388 9.6283 14.5591 9.8012 14.5591 9.8012L9.70469 12.9242L7.68307 12.2357C7.68307 12.2357 7.37257 12.1244 7.34332 11.8795C7.31257 11.6365 7.69319 11.5045 7.69319 11.5045L15.7309 8.31135C15.7309 8.31135 16.3917 8.01696 16.3917 8.50448L14.9603 15.8143Z" fill="white"/>
<rect x="1.10488" y="0.474969" width="22.95" height="22.95" rx="4.275" stroke="white" stroke-width="0.45"/>
</svg>
