<svg width="24" height="24" viewBox="0 0 24 24" fill="none" xmlns="http://www.w3.org/2000/svg">
<g clip-path="url(#clip0_210_3665)">
<path d="M20.2158 6.75195C19.6007 7.02519 18.9399 7.20897 18.2464 7.29195C18.9547 6.86769 19.4978 6.19611 19.7535 5.39529C19.0915 5.78805 18.3576 6.07335 17.5759 6.22761C16.9506 5.56107 16.0598 5.14455 15.0737 5.14455C12.8943 5.11539 11.2187 7.24461 11.7344 9.35385C8.88513 9.21111 6.35919 7.84599 4.66755 5.77113C3.74433 7.27665 4.26849 9.42963 5.72883 10.3487C5.16705 10.3307 4.63803 10.1765 4.17597 9.91995C4.15455 11.5949 5.34273 13.0089 6.92619 13.3245C6.43965 13.4602 5.87913 13.4814 5.37783 13.3835C5.81433 14.7454 7.08045 15.7372 8.58057 15.7647C7.22427 16.8485 5.32545 17.4135 3.50439 17.1846C10.8272 21.6912 18.9223 15.7869 18.5043 8.52639C19.1745 8.04255 19.7562 7.43901 20.2158 6.75195Z" fill="white"/>
</g>
<rect x="0.385156" y="0.474969" width="22.95" height="22.95" rx="4.275" stroke="white" stroke-width="0.45"/>
<defs>
<clipPath id="clip0_210_3665">
<rect width="18" height="18" fill="white" transform="translate(2.86011 2.94998)"/>
</clipPath>
</defs>
</svg>
